<?xml version="1.0" standalone="no"?>
<!DOCTYPE svg PUBLIC "-//W3C//DTD SVG 20010904//EN"
 "http://www.w3.org/TR/2001/REC-SVG-20010904/DTD/svg10.dtd">
<svg version="1.0" xmlns="http://www.w3.org/2000/svg"
 width="800.000000pt" height="800.000000pt" viewBox="0 0 800.000000 800.000000"
 preserveAspectRatio="xMidYMid meet">
<metadata>
Created by potrace 1.11, written by Peter Selinger 2001-2013
</metadata>
<g transform="translate(0.000000,800.000000) scale(0.100000,-0.100000)"
fill="#000000" stroke="none">
<path d="M0 4000 l0 -4000 4000 0 4000 0 0 4000 0 4000 -4000 0 -4000 0 0
-4000z m4040 590 l0 -880 -40 0 -40 0 0 -40 0 -40 -40 0 -40 0 0 40 0 40 -40
0 -40 0 0 -40 0 -40 -40 0 -40 0 0 40 0 40 -40 0 -40 0 0 -40 0 -40 -40 0 -40
0 0 40 0 40 -40 0 -40 0 0 -40 0 -40 -40 0 -40 0 0 40 0 40 -40 0 -40 0 0 -40
0 -40 -40 0 -40 0 0 40 0 40 -40 0 -40 0 0 -40 0 -40 -40 0 -40 0 0 40 0 40
-40 0 -40 0 0 -40 0 -40 -40 0 -40 0 0 40 0 40 -40 0 -40 0 0 -40 0 -40 -40 0
-40 0 0 40 0 40 -40 0 -40 0 0 -40 0 -40 -40 0 -40 0 0 40 0 40 -40 0 -40 0 0
-40 0 -40 -40 0 -40 0 0 40 0 40 -40 0 -40 0 0 -40 0 -40 -40 0 -40 0 0 40 0
40 -40 0 -40 0 0 -40 0 -40 -40 0 -40 0 0 40 0 40 -40 0 -40 0 0 -40 0 -40
-40 0 -40 0 0 40 0 40 -40 0 -40 0 0 -40 0 -40 -40 0 -40 0 0 40 0 40 -40 0
-40 0 0 -40 0 -40 -40 0 -40 0 0 40 0 40 -40 0 -40 0 0 -40 0 -40 -40 0 -40 0
0 40 0 40 -40 0 -40 0 0 -40 0 -40 -40 0 -40 0 0 40 0 40 -40 0 -40 0 0 -40 0
-40 -40 0 -40 0 0 40 0 40 -40 0 -40 0 0 -40 0 -40 -40 0 -40 0 0 40 0 40 -40
0 -40 0 0 -40 0 -40 -40 0 -40 0 0 40 0 40 -40 0 -40 0 0 40 0 40 -40 0 -40 0
0 40 0 40 -40 0 -40 0 0 -40 0 -40 -40 0 -40 0 0 40 0 40 -40 0 -40 0 0 40 0
40 -40 0 -40 0 0 40 0 40 40 0 40 0 0 40 0 40 -80 0 -80 0 0 80 0 80 -40 0
-40 0 0 280 0 280 40 0 40 0 0 80 0 80 40 0 40 0 0 80 0 80 40 0 40 0 0 40 0
40 40 0 40 0 0 40 0 40 80 0 80 0 0 40 0 40 80 0 80 0 0 40 0 40 1600 0 1600
0 0 -880z m2880 690 l0 -40 40 0 40 0 0 -40 0 -40 -40 0 -40 0 0 -40 0 -40
-1400 0 -1400 0 0 120 0 120 1400 0 1400 0 0 -40z m-2330 -470 l0 -40 40 0 40
0 0 -40 0 -40 40 0 40 0 0 -40 0 -40 80 0 80 0 0 40 0 40 40 0 40 0 0 40 0 40
40 0 40 0 0 40 0 40 40 0 40 0 0 -40 0 -40 40 0 40 0 0 -320 0 -320 -40 0 -40
0 0 -40 0 -40 -40 0 -40 0 0 240 0 240 -40 0 c-39 0 -40 -1 -40 -35 0 -34 -1
-35 -40 -35 l-40 0 0 -40 0 -40 -80 0 -80 0 0 40 0 40 -40 0 c-39 0 -40 1 -40
35 0 34 -1 35 -40 35 l-40 0 0 -240 0 -240 -40 0 -40 0 0 40 0 40 -40 0 -40 0
0 320 0 320 40 0 40 0 0 40 0 40 40 0 40 0 0 -40z m1410 0 l0 -40 40 0 40 0 0
-40 0 -40 40 0 40 0 0 -280 0 -280 -40 0 -40 0 0 -40 0 -40 -40 0 -40 0 0 160
0 160 -160 0 -160 0 0 -160 0 -160 -40 0 -40 0 0 40 0 40 -40 0 -40 0 0 280 0
280 40 0 40 0 0 40 0 40 40 0 40 0 0 40 0 40 160 0 160 0 0 -40z m850 0 l0
-40 40 0 40 0 0 -160 0 -160 -40 0 -40 0 0 -40 0 -40 -120 0 -120 0 0 -160 0
-160 -40 0 -40 0 0 40 0 40 -40 0 -40 0 0 320 0 320 40 0 40 0 0 40 0 40 160
0 160 0 0 -40z m-5120 -1530 l0 -40 40 0 40 0 0 -160 0 -160 -40 0 -40 0 0
-40 0 -40 -120 0 -120 0 0 -160 0 -160 -40 0 -40 0 0 40 0 40 -40 0 -40 0 0
320 0 320 40 0 40 0 0 40 0 40 160 0 160 0 0 -40z m880 0 l0 -40 40 0 40 0 0
-320 0 -320 -40 0 -40 0 0 -40 0 -40 -240 0 -240 0 0 40 0 40 -40 0 -40 0 0
320 0 320 40 0 40 0 0 40 0 40 240 0 240 0 0 -40z m800 0 l0 -40 40 0 40 0 0
-40 0 -40 40 0 40 0 0 -200 0 -200 -40 0 -40 0 0 -40 0 -40 -40 0 -40 0 0 -40
0 -40 -200 0 -200 0 0 40 0 40 -40 0 -40 0 0 280 0 280 40 0 40 0 0 40 0 40
200 0 200 0 0 -40z m800 0 l0 -40 40 0 40 0 0 -40 0 -40 -120 0 -120 0 0 -40
0 -40 -40 0 -40 0 0 -160 0 -160 40 0 40 0 0 -40 0 -40 120 0 120 0 0 -40 c0
-39 -1 -40 -35 -40 -34 0 -35 -1 -35 -40 l0 -40 -160 0 -160 0 0 40 0 40 -45
0 -45 0 0 320 0 320 40 0 40 0 0 40 0 40 160 0 160 0 0 -40z m800 0 l0 -40 40
0 40 0 0 -40 0 -40 40 0 40 0 0 -280 0 -280 -40 0 -40 0 0 -40 0 -40 -40 0
-40 0 0 160 0 160 -160 0 -160 0 0 -160 0 -160 -40 0 -40 0 0 40 0 40 -40 0
-40 0 0 280 0 280 40 0 40 0 0 40 0 40 40 0 40 0 0 40 0 40 160 0 160 0 0 -40z
m800 0 l0 -40 40 0 40 0 0 -40 0 -40 -120 0 -120 0 0 -40 0 -40 -40 0 -40 0 0
-40 0 -40 120 0 120 0 0 -40 0 -40 40 0 40 0 0 -160 0 -160 -40 0 -40 0 0 -40
0 -40 -160 0 -160 0 0 40 0 40 -40 0 -40 0 0 40 0 40 120 0 120 0 0 40 0 40
40 0 40 0 0 40 0 40 -120 0 -120 0 0 40 0 40 -40 0 -40 0 0 160 0 160 40 0 40
0 0 40 0 40 160 0 160 0 0 -40z m1040 0 l0 -40 40 0 40 0 0 -40 0 -40 -165 0
-165 0 0 -280 0 -280 -40 0 -40 0 0 -40 0 -40 -40 0 -40 0 0 320 0 320 -155 0
-155 0 0 40 0 40 40 0 40 0 0 40 0 40 320 0 320 0 0 -40z"/>
<path d="M2250 4880 l0 -40 -40 0 -40 0 0 -40 0 -40 -40 0 -40 0 0 -320 0
-320 40 0 40 0 0 -40 0 -40 40 0 40 0 0 -40 0 -40 160 0 160 0 0 40 0 40 40 0
40 0 0 40 0 40 40 0 40 0 0 40 0 40 -40 0 -40 0 0 40 0 40 -80 0 -80 0 0 40 0
40 40 0 40 0 0 80 0 80 -40 0 -40 0 0 40 0 40 80 0 80 0 0 40 0 40 40 0 40 0
0 40 0 40 -40 0 -40 0 0 40 0 40 -40 0 -40 0 0 40 0 40 -160 0 -160 0 0 -40z
m320 -80 l0 -40 40 0 40 0 0 -40 0 -40 -120 0 -120 0 0 -40 0 -40 -40 0 -40 0
0 -40 0 -40 80 0 80 0 0 -80 0 -80 -80 0 -80 0 0 -40 0 -40 40 0 40 0 0 -40 0
-40 120 0 120 0 0 -40 0 -40 -40 0 -40 0 0 -40 0 -40 -160 0 -160 0 0 40 0 40
-40 0 -40 0 0 320 0 320 40 0 40 0 0 40 0 40 160 0 160 0 0 -40z"/>
<path d="M3030 4880 l0 -40 -40 0 -40 0 0 -40 0 -40 -40 0 -40 0 0 -280 0
-280 40 0 40 0 0 -40 0 -40 40 0 40 0 0 -40 0 -40 40 0 40 0 0 -40 0 -40 80 0
80 0 0 40 0 40 40 0 40 0 0 40 0 40 40 0 40 0 0 40 0 40 40 0 40 0 0 40 0 40
40 0 40 0 0 40 0 40 40 0 40 0 0 200 0 200 -40 0 -40 0 0 40 0 40 -40 0 -40 0
0 40 0 40 -40 0 -40 0 0 -40 0 -40 -40 0 -40 0 0 -200 0 -200 -40 0 -40 0 0
-40 0 -40 -40 0 -40 0 0 240 0 240 -40 0 -40 0 0 40 0 40 -40 0 -40 0 0 -40z
m80 -320 l0 -280 80 0 80 0 0 40 0 40 40 0 40 0 0 40 0 40 40 0 40 0 0 200 0
200 40 0 40 0 0 -40 0 -40 40 0 40 0 0 -200 0 -200 -40 0 -40 0 0 -40 0 -40
-40 0 -40 0 0 -40 0 -40 -40 0 -40 0 0 -40 0 -40 -40 0 -40 0 0 -40 0 -40 -80
0 -80 0 0 40 0 40 -40 0 -40 0 0 40 0 40 -40 0 -40 0 0 280 0 280 40 0 40 0 0
40 0 40 40 0 40 0 0 -280z"/>
<path d="M1310 4870 l0 -40 -40 0 -40 0 0 -360 0 -360 40 0 40 0 0 -40 0 -40
240 0 240 0 0 40 0 40 40 0 40 0 0 40 0 40 40 0 40 0 0 40 0 40 40 0 40 0 0
200 0 200 -40 0 -40 0 0 40 0 40 -40 0 -40 0 0 40 0 40 -40 0 -40 0 0 40 0 40
-240 0 -240 0 0 -40z m480 -80 l0 -40 40 0 40 0 0 -40 0 -40 40 0 40 0 0 -200
0 -200 -40 0 -40 0 0 -40 0 -40 -40 0 -40 0 0 -40 0 -40 -200 0 -200 0 0 40 0
40 -40 0 -40 0 0 280 0 280 40 0 40 0 0 40 0 40 200 0 200 0 0 -40z"/>
<path d="M1470 4460 l0 -240 120 0 120 0 0 40 0 40 40 0 40 0 0 160 0 160 -40
0 -40 0 0 40 0 40 -120 0 -120 0 0 -240z m240 0 l0 -160 -80 0 -80 0 0 160 0
160 80 0 80 0 0 -160z"/>
<path d="M440 3990 l0 -40 40 0 40 0 0 -40 0 -40 40 0 40 0 0 40 0 40 40 0 40
0 0 -40 0 -40 40 0 40 0 0 -40 0 -40 40 0 40 0 0 -40 0 -40 40 0 40 0 0 40 0
40 40 0 40 0 0 -40 0 -40 40 0 40 0 0 40 0 40 -40 0 -40 0 0 40 0 40 -40 0
-40 0 0 -40 0 -40 -40 0 -40 0 0 40 0 40 -40 0 -40 0 0 40 0 40 -40 0 -40 0 0
40 0 40 -40 0 -40 0 0 -40 0 -40 -40 0 -40 0 0 40 0 40 -40 0 -40 0 0 -40z"/>
<path d="M1160 3750 l0 -40 40 0 40 0 0 40 0 40 -40 0 -40 0 0 -40z"/>
<path d="M1320 3750 l0 -40 40 0 40 0 0 40 0 40 -40 0 -40 0 0 -40z"/>
<path d="M1480 3750 l0 -40 40 0 40 0 0 40 0 40 -40 0 -40 0 0 -40z"/>
<path d="M1640 3750 l0 -40 40 0 40 0 0 40 0 40 -40 0 -40 0 0 -40z"/>
<path d="M1800 3750 l0 -40 40 0 40 0 0 40 0 40 -40 0 -40 0 0 -40z"/>
<path d="M1960 3750 l0 -40 40 0 40 0 0 40 0 40 -40 0 -40 0 0 -40z"/>
<path d="M2120 3750 l0 -40 40 0 40 0 0 40 0 40 -40 0 -40 0 0 -40z"/>
<path d="M2280 3750 l0 -40 40 0 40 0 0 40 0 40 -40 0 -40 0 0 -40z"/>
<path d="M2440 3750 l0 -40 40 0 40 0 0 40 0 40 -40 0 -40 0 0 -40z"/>
<path d="M2600 3750 l0 -40 40 0 40 0 0 40 0 40 -40 0 -40 0 0 -40z"/>
<path d="M2760 3750 l0 -40 40 0 40 0 0 40 0 40 -40 0 -40 0 0 -40z"/>
<path d="M2920 3750 l0 -40 40 0 40 0 0 40 0 40 -40 0 -40 0 0 -40z"/>
<path d="M3080 3750 l0 -40 40 0 40 0 0 40 0 40 -40 0 -40 0 0 -40z"/>
<path d="M3240 3750 l0 -40 40 0 40 0 0 40 0 40 -40 0 -40 0 0 -40z"/>
<path d="M3400 3750 l0 -40 40 0 40 0 0 40 0 40 -40 0 -40 0 0 -40z"/>
<path d="M3560 3750 l0 -40 40 0 40 0 0 40 0 40 -40 0 -40 0 0 -40z"/>
<path d="M3720 3750 l0 -40 40 0 40 0 0 40 0 40 -40 0 -40 0 0 -40z"/>
<path d="M3880 3750 l0 -40 40 0 40 0 0 40 0 40 -40 0 -40 0 0 -40z"/>
<path d="M5760 4650 l0 -40 -40 0 -40 0 0 -80 0 -80 160 0 160 0 0 80 0 80
-40 0 -40 0 0 40 0 40 -80 0 -80 0 0 -40z"/>
<path d="M6610 4730 l0 -40 -40 0 -40 0 0 -80 0 -80 40 0 40 0 0 -40 0 -40 80
0 80 0 0 40 0 40 40 0 40 0 0 80 0 80 -40 0 -40 0 0 40 0 40 -80 0 -80 0 0
-40z"/>
<path d="M1490 3200 l0 -40 -40 0 -40 0 0 -80 0 -80 40 0 40 0 0 -40 0 -40 80
0 80 0 0 40 0 40 40 0 40 0 0 80 0 80 -40 0 -40 0 0 40 0 40 -80 0 -80 0 0
-40z"/>
<path d="M2290 3120 l0 -40 -40 0 -40 0 0 -160 0 -160 40 0 40 0 0 -40 0 -40
80 0 80 0 0 40 0 40 40 0 40 0 0 160 0 160 -40 0 -40 0 0 40 0 40 -80 0 -80 0
0 -40z"/>
<path d="M3090 2950 l0 -240 120 0 120 0 0 40 0 40 40 0 40 0 0 160 0 160 -40
0 -40 0 0 40 0 40 -120 0 -120 0 0 -240z"/>
<path d="M4770 3120 l0 -40 -40 0 -40 0 0 -80 0 -80 160 0 160 0 0 80 0 80
-40 0 -40 0 0 40 0 40 -80 0 -80 0 0 -40z"/>
</g>
</svg>
